HIERARCHY
ROOT pelvis
{
  OFFSET 0 100 0
  CHANNELS 6 Xposition Yposition Zposition Zrotation Xrotation Yrotation
  JOINT pelvis_right_femur
  {
    OFFSET -10.78128 -3.44521 -0.5502486
    CHANNELS 3 Zrotation Xrotation Yrotation
    JOINT right_femur_tibia
    {
      OFFSET -0.8047443 -44.0398 -0.1307829
      CHANNELS 3 Zrotation Xrotation Yrotation
      JOINT right_tibia_foot
      {
        OFFSET 3.006224 -47.83518 -5
        CHANNELS 3 Zrotation Xrotation Yrotation
        End Site
        {
          OFFSET 0 -5 15
        }
      }
    }
  }
  JOINT pelvis_left_femur
  {
    OFFSET 10.78128 -3.44521 -0.5502486
    CHANNELS 3 Zrotation Xrotation Yrotation
    JOINT left_femur_tibia
    {
      OFFSET 0.8047443 -44.0398 -0.1307829
      CHANNELS 3 Zrotation Xrotation Yrotation
      JOINT left_tibia_foot
      {
        OFFSET -4.370144 -48.10324 -4.275266
        CHANNELS 3 Zrotation Xrotation Yrotation
        End Site
        {
          OFFSET 0 -5 15
        }
      }
    }
  }
  JOINT pelvis_spine1
  {
    OFFSET 0 6.468898 -3.129235
    CHANNELS 3 Zrotation Xrotation Yrotation
    JOINT spine1
    {
      OFFSET 0 23.15396 4.99043
      CHANNELS 3 Zrotation Xrotation Yrotation
      JOINT spine2
      {
        OFFSET 0 20.79997 -5.064912
        CHANNELS 3 Zrotation Xrotation Yrotation
        JOINT neck
        {
          OFFSET 0 14.38658 9.616178
          CHANNELS 3 Zrotation Xrotation Yrotation
          End Site
          {
            OFFSET 0 20 0
          }
        }
      }
      JOINT right_manubrium
      {
        OFFSET -5.722621 16.35077 3.967754
        CHANNELS 3 Zrotation Xrotation Yrotation
        JOINT right_clavicle
        {
          OFFSET -13.16364 1.694482 -4.693211
          CHANNELS 3 Zrotation Xrotation Yrotation
          JOINT right_humerus
          {
            OFFSET -28.5034 -0.3100689 -2.792744
            CHANNELS 3 Zrotation Xrotation Yrotation
            JOINT right_radius
            {
              OFFSET -25.15693 0.02248979 -1.271978
              CHANNELS 3 Zrotation Xrotation Yrotation
              End Site
              {
                OFFSET -15 0 0
              }
            }
          }
        }
      }
      JOINT left_manubrium
      {
        OFFSET 5.722621 16.35077 3.967754
        CHANNELS 3 Zrotation Xrotation Yrotation
        JOINT left_clavicle
        {
          OFFSET 13.16364 1.694482 -4.693211
          CHANNELS 3 Zrotation Xrotation Yrotation
          JOINT left_humerus
          {
            OFFSET 29.39168 -1.063119 -2.237045
            CHANNELS 3 Zrotation Xrotation Yrotation
            JOINT left_radius
            {
              OFFSET 24.59957 -0.9528479 0.9047498
              CHANNELS 3 Zrotation Xrotation Yrotation
              End Site
              {
                OFFSET 15 -0 -0
              }
            }
          }
        }
      }
    }
  }
}
MOTION
Frames: 17
Frame Time: 0.0416666666667
0 103.5113 0 0.6209153 -0.9393196 -0.360087 4.409521 -15.93148 10.81237 -0 41.07083 -0 -5.461088 -17.14269 -2.222165 -7.056781 10.64313 -24.53166 -0 6.071001 -0 12.45393 -15.00075 30.38081 -3.483298 -4.639097 5.489371 2.520854 10.13847 -6.900969 2.04757 21.95712 6.1312 2.967933 -25.27802 9.916522 6.82765 -20.83346 12.0636 84.33891 34.5064 -16.77258 -0 0 17.76736 -5.950726 7.591658 3.311691 6.04541 -19.07971 -0.9170748 -94.70514 22.35053 23.11639 0 0 -12.14813 14.35693 17.61179 -2.837003
0.4256716 103.1774 1.529081 0.6013877 -0.818356 -0.7400094 4.542937 -16.22239 10.84348 -0 40.43959 -0 -5.275759 -17.26283 -2.185594 -7.046472 10.6821 -24.42598 -0 6.037335 -0 12.56593 -15.09573 30.36161 -3.44247 -4.72079 5.575347 2.545305 10.17606 -6.958515 2.048099 21.85053 6.118835 2.944006 -25.34649 9.930075 6.768025 -20.91475 12.07518 84.37376 34.36482 -16.90151 -0 0 17.89649 -5.954148 7.66275 3.204977 6.119447 -19.18098 -0.9139884 -94.64833 22.11738 23.10496 0 0 -12.41102 14.57259 17.54482 -3.108381
0.7486607 102.5769 3.554259 0.5408513 -1.414777 -0.9486579 4.068912 -18.38459 7.653989 -0 36.01966 -0 -6.994734 -12.41399 -1.728736 -6.77894 11.60241 -22.22185 -0 6.356 -0 11.04698 -16.50239 27.94199 -3.245165 -3.961882 4.705951 2.344161 10.43457 -7.184247 1.697427 22.14406 6.478738 3.346735 -24.82633 9.35809 5.521709 -20.3548 11.89474 86.19339 32.70256 -18.29354 -0 0 15.54027 -8.540952 7.606236 4.459736 6.573309 -20.56332 -2.019842 -93.02129 21.80656 20.75618 0 0 -14.63879 14.29069 17.52197 -3.122405
1.017008 101.8132 5.864042 0.4208244 -1.067149 -1.080263 4.211878 -20.59661 6.310171 -0 31.9094 -0 -7.29491 -10.57815 -1.492404 -6.608327 11.99432 -20.91006 -0 6.425771 -0 10.00361 -17.74355 26.30264 -3.043067 -3.658296 4.474566 2.37899 10.46721 -7.525788 1.467289 21.94131 6.732973 3.531874 -24.87029 9.122214 4.961909 -20.18731 11.82382 86.96482 32.06169 -19.37951 -0 0 14.77706 -9.635237 7.865951 4.840662 6.897023 -21.40488 -2.449607 -92.30011 21.90934 19.87022 0 0 -16.75968 13.58673 17.38019 -2.386234
1.227635 100.8382 8.530757 0.2952027 -0.758712 -1.14121 4.37086 -22.85653 4.926986 -0 27.40283 -0 -7.49095 -8.703178 -1.242898 -6.416582 12.54844 -19.44978 -0 6.766128 -0 9.052858 -18.84751 24.63974 -2.785126 -3.454675 4.291908 2.406489 10.57417 -7.871203 1.278013 21.68824 6.916115 3.667992 -24.88172 8.887317 4.27795 -20.04602 11.74962 87.82236 31.08259 -20.49464 -0 0 14.0185 -10.81425 8.169105 5.142895 7.280331 -22.33242 -2.901679 -91.43772 21.50799 18.80841 0 0 -18.90979 13.4056 17.14544 -2.322677
1.383504 99.67821 11.56799 0.1337877 -0.292824 -1.144586 4.621817 -25.15086 3.740118 -0 22.78196 -0 -7.576868 -7.068257 -1.003933 -6.215989 13.08203 -18.04706 -0 7.366136 -0 8.043013 -19.84869 22.92382 -2.486384 -3.322107 4.180984 2.468624 10.65717 -8.237678 1.106478 21.35116 7.078978 3.78547 -24.9964 8.68266 3.661215 -19.9333 11.68564 88.5819 30.18756 -21.60506 -0 0 13.40408 -11.82369 8.524508 5.341514 7.643908 -23.21389 -3.270378 -90.69491 21.0955 17.94603 0 0 -21.03223 13.22125 16.88912 -2.217565
1.483416 98.35782 15.01854 -0.06219949 0.2151833 -1.096872 4.9033 -27.35454 2.597467 -0 18.15466 -0 -7.694548 -5.37764 -0.7482251 -5.997864 13.62312 -16.62008 -0 8.442014 -0 6.915803 -20.65781 21.07534 -2.137694 -3.228714 4.088794 2.53717 10.74746 -8.5989 0.9509972 20.9819 7.216825 3.89869 -25.15239 8.475373 3.054022 -19.80649 11.6254 89.33293 29.26408 -22.70347 -0 0 12.78281 -12.79878 8.904252 5.5146 7.978911 -24.077 -3.616547 -90.00353 20.58914 17.17194 0 0 -23.04485 13.11273 16.61517 -2.185552
1.526785 96.92945 18.92882 -0.3006118 0.7475429 -1.005529 5.221705 -29.33539 1.520467 -0 13.72364 -0 -7.898759 -3.589871 -0.4711932 -5.758001 14.12054 -15.19149 -0 10.20815 -0 5.621032 -21.17683 19.06841 -1.734362 -3.162754 4.007166 2.607802 10.84171 -8.939047 0.8118025 20.59674 7.329598 4.015261 -25.35142 8.259369 2.486364 -19.64782 11.57331 90.06525 28.36295 -23.76369 -0 0 12.13188 -13.72242 9.302301 5.679003 8.249592 -24.88515 -3.937967 -89.4037 20.05257 16.5456 0 0 -24.84371 13.0136 16.33613 -2.13217
1.514211 95.47516 23.34627 -0.58302 1.250172 -0.8819949 5.587392 -30.87599 0.5486259 -0 9.792862 -0 -8.243548 -1.679517 -0.1716055 -5.492151 14.49968 -13.79069 -0 12.97007 -0 4.148887 -21.25225 16.92308 -1.273846 -3.116757 3.93423 2.670644 10.94922 -9.230789 0.6948738 20.2238 7.406891 4.136778 -25.57853 8.027507 1.990122 -19.44199 11.53823 90.76841 27.52073 -24.73858 -0 0 11.4303 -14.57612 9.709787 5.846405 8.410439 -25.59108 -4.23653 -88.93421 19.51789 16.12486 0 0 -26.2725 12.89921 16.06156 -2.015512
1.449339 94.11714 28.3043 -0.9029517 1.652385 -0.745944 6.027395 -31.67634 -0.2263624 -0 6.786937 -0 -8.766793 0.3012888 0.1421622 -5.197275 14.62664 -12.4797 -0 17.08959 -0 2.538581 -20.69717 14.72982 -0.7621122 -3.083498 3.882527 2.715566 11.08304 -9.438798 0.6082425 19.89954 7.434277 4.26056 -25.81505 7.775824 1.621044 -19.18464 11.53669 91.40819 26.80991 -25.55877 -0 0 10.68789 -15.30858 10.11704 6.015863 8.400568 -26.12504 -4.506439 -88.65866 19.04461 16.00589 0 0 -27.13212 12.7266 15.80501 -1.766183
1.340081 93.01756 33.80005 -1.236994 1.849223 -0.6297851 6.565092 -31.3752 -0.6938727 -0 5.186636 -0 -9.480951 2.222666 0.4493045 -4.874201 14.2984 -11.332 -0 22.916 -0 0.9001308 -19.33362 12.66698 -0.2198852 -3.049759 3.879426 2.729402 11.26872 -9.522403 0.558845 19.67359 7.394741 4.37874 -26.02404 7.499533 1.44111 -18.89139 11.59338 91.93545 26.31046 -26.13696 -0 0 9.944184 -15.86386 10.51244 6.180376 8.155613 -26.41557 -4.745356 -88.64606 18.6963 16.29114 0 0 -27.22339 12.45147 15.58073 -1.317557
1.19817 92.35802 39.76589 -1.538414 1.707045 -0.5804176 7.186104 -29.65041 -0.7848536 -0 5.331909 -0 -10.34858 3.874982 0.7137908 -4.531338 13.25282 -10.39322 -0 30.59936 -0 -0.5894609 -17.09035 10.9825 0.3120541 -2.99094 3.967119 2.696502 11.5484 -9.448701 0.5462191 19.60175 7.274699 4.477833 -26.14188 7.189877 1.487209 -18.61327 11.7383 92.29595 26.06635 -26.38553 -0 0 9.275889 -16.22265 10.88578 6.335462 7.636023 -26.42889 -4.965462 -88.94115 18.50915 17.04248 0 0 -26.44965 12.04266 15.39685 -0.637548
1.035506 92.28628 46.04806 -1.741311 1.093888 -0.6526026 7.807202 -26.38942 -0.5534268 -0 7.108492 -0 -11.26115 5.006951 0.889188 -4.1819 11.22819 -9.621145 -0 39.79962 -0 -1.732696 -14.12369 9.91455 0.7753191 -2.871284 4.193522 2.600443 11.97648 -9.212073 0.5564708 19.72595 7.071229 4.539033 -26.07649 6.83167 1.721199 -18.44853 11.99666 92.44982 26.01439 -26.24274 -0 0 8.797581 -16.46391 11.23496 6.496751 6.869417 -26.21974 -5.206465 -89.51587 18.43902 18.21267 0 0 -24.94711 11.51196 15.24531 0.2166967
0.8588973 92.83915 52.41604 -1.786551 -0.05417283 -0.890398 8.300408 -21.82505 -0.1958421 -0 9.73809 -0 -12.04749 5.391445 0.9360519 -3.820171 8.065997 -8.86233 -0 49.43193 -0 -2.389317 -10.86298 9.580958 1.109845 -2.65755 4.591967 2.428468 12.59219 -8.845757 0.5637552 20.04463 6.795525 4.540337 -25.72898 6.408822 2.002439 -18.53468 12.37035 92.38327 25.95295 -25.68484 -0 0 8.659417 -16.78765 11.57188 6.718084 5.975017 -25.93974 -5.530318 -90.24199 18.3458 19.62168 0 0 -23.11738 10.92288 15.10031 1.084649
0.6701904 93.88521 58.61871 -1.663383 -1.65498 -1.306361 8.570465 -16.46011 0.05139532 -0 12.00897 -0 -12.53517 4.868349 0.8454921 -3.38231 3.795857 -7.933784 -0 57.72009 -0 -2.538768 -7.873003 9.928318 1.278686 -2.344206 5.157125 2.17879 13.36807 -8.405653 0.5449731 20.4946 6.467057 4.461361 -25.04542 5.922238 2.139676 -19.00778 12.81814 92.08848 25.64015 -24.69689 -0 0 9.043776 -17.42406 11.91604 7.09086 5.126679 -25.74685 -5.974879 -90.95221 18.08092 21.06131 0 0 -21.42344 10.33289 14.93636 1.805002
0.4772569 95.13896 64.46857 -1.434221 -3.449548 -1.879415 8.602477 -10.78035 0.0688102 -0 12.94307 -0 -12.64381 3.33501 0.6502436 -2.742627 -1.356804 -6.779871 -0 62.68877 -0 -2.295941 -5.585504 10.7906 1.284438 -1.969897 5.831827 1.868006 14.16864 -7.932221 0.4992863 20.96777 6.102679 4.290368 -24.0719 5.409109 2.01415 -19.93995 13.25102 91.52058 24.99817 -23.22264 -0 0 10.14317 -18.45123 12.27039 7.711456 4.462811 -25.6588 -6.483755 -91.58572 17.64567 22.48869 0 0 -20.03771 9.688365 14.75773 2.401481
0.3068484 96.24963 69.90465 -1.212226 -5.071617 -2.575085 8.432846 -5.043439 -0.07541911 -0 12.34616 -0 -12.44096 0.7534253 0.4106251 -1.786566 -7.004157 -5.554667 -0 62.85578 -0 -1.874243 -4.121461 11.98794 1.1646 -1.60619 6.511883 1.531497 14.77235 -7.428445 0.4545013 21.35817 5.711151 4.02893 -22.9578 4.941078 1.660703 -21.28795 13.55549 90.59289 24.21718 -21.16722 -0 0 12.08382 -19.69054 12.5997 8.631168 4.023447 -25.49921 -6.889674 -92.26301 17.25179 24.08669 0 0 -18.68296 8.804513 14.6091 3.13953
